<svg xmlns="http://www.w3.org/2000/svg" width="900" height="420" viewBox="0 0 900 420"><rect width="100%" height="100%" fill="#ffffff"/><text x="80" y="24" font-size="18" font-family="Arial" fill="#111">Bucket Strategy Net PnL (10m horizon)</text><line x1="80" y1="144.0" x2="870" y2="144.0" stroke="#333" stroke-width="1.2"/><line x1="80" y1="330.0" x2="870" y2="330.0" stroke="#e5e7eb" stroke-width="1"/><text x="70" y="334.0" text-anchor="end" font-size="11" font-family="Arial" fill="#555">-2,354</text><line x1="80" y1="257.5" x2="870" y2="257.5" stroke="#e5e7eb" stroke-width="1"/><text x="70" y="261.5" text-anchor="end" font-size="11" font-family="Arial" fill="#555">-1,436</text><line x1="80" y1="185.0" x2="870" y2="185.0" stroke="#e5e7eb" stroke-width="1"/><text x="70" y="189.0" text-anchor="end" font-size="11" font-family="Arial" fill="#555">-519</text><line x1="80" y1="112.5" x2="870" y2="112.5" stroke="#e5e7eb" stroke-width="1"/><text x="70" y="116.5" text-anchor="end" font-size="11" font-family="Arial" fill="#555">399</text><line x1="80" y1="40.0" x2="870" y2="40.0" stroke="#e5e7eb" stroke-width="1"/><text x="70" y="44.0" text-anchor="end" font-size="11" font-family="Arial" fill="#555">1,317</text><rect x="99.8" y="144.0" width="73.4" height="23.7" fill="#d62728" rx="3"/><text x="136.4" y="348" text-anchor="middle" font-size="11" font-family="Arial" fill="#222">0.00-0.10</text><text x="136.4" y="181.7" text-anchor="middle" font-size="10" font-family="Arial" fill="#222">-300</text><rect x="212.6" y="144.0" width="73.4" height="27.3" fill="#d62728" rx="3"/><text x="249.3" y="348" text-anchor="middle" font-size="11" font-family="Arial" fill="#222">0.10-0.25</text><text x="249.3" y="185.3" text-anchor="middle" font-size="10" font-family="Arial" fill="#222">-346</text><rect x="325.5" y="144.0" width="73.4" height="186.0" fill="#d62728" rx="3"/><text x="362.1" y="348" text-anchor="middle" font-size="11" font-family="Arial" fill="#222">0.25-0.40</text><text x="362.1" y="344.0" text-anchor="middle" font-size="10" font-family="Arial" fill="#222">-2,354</text><rect x="438.3" y="144.0" width="73.4" height="82.1" fill="#d62728" rx="3"/><text x="475.0" y="348" text-anchor="middle" font-size="11" font-family="Arial" fill="#222">0.40-0.60</text><text x="475.0" y="240.1" text-anchor="middle" font-size="10" font-family="Arial" fill="#222">-1,039</text><rect x="551.2" y="40.0" width="73.4" height="104.0" fill="#1f77b4" rx="3"/><text x="587.9" y="348" text-anchor="middle" font-size="11" font-family="Arial" fill="#222">0.60-0.75</text><text x="587.9" y="34.0" text-anchor="middle" font-size="10" font-family="Arial" fill="#222">1,317</text><rect x="664.0" y="144.0" width="73.4" height="6.1" fill="#d62728" rx="3"/><text x="700.7" y="348" text-anchor="middle" font-size="11" font-family="Arial" fill="#222">0.75-0.90</text><text x="700.7" y="164.1" text-anchor="middle" font-size="10" font-family="Arial" fill="#222">-78</text><rect x="776.9" y="144.0" width="73.4" height="2.8" fill="#d62728" rx="3"/><text x="813.6" y="348" text-anchor="middle" font-size="11" font-family="Arial" fill="#222">0.90-1.00</text><text x="813.6" y="160.8" text-anchor="middle" font-size="10" font-family="Arial" fill="#222">-35</text><text x="450.0" y="400" text-anchor="middle" font-size="12" font-family="Arial" fill="#444">Price bucket</text><text x="20" y="210.0" transform="rotate(-90 20 210.0)" text-anchor="middle" font-size="12" font-family="Arial" fill="#444">Net PnL (USDC)</text></svg>